<svg version="1" xmlns="http://www.w3.org/2000/svg" width="682.667" height="682.667" viewBox="0 0 512.000000 512.000000"><path d="M229 1.4c-15.3 1.8-22 3.1-37.5 7-17.6 4.5-30 9.2-49 18.5-66.7 32.7-115.6 93-134.4 165.9-20 77.1-1.7 161.4 48.6 223.7 34.4 42.6 82.5 73.5 135.9 87.4 22.3 5.7 36.2 7.4 62.4 7.5 26.9.1 38.7-1.3 61.9-7 36.6-9 70.9-25.9 99.6-49.1 28.7-23.2 52.2-52.6 68.5-85.8 9.3-18.9 13.7-30.4 18.5-48.8C531.4 214.8 488.4 103 396.3 42c-12.3-8.2-38.1-21.2-52.4-26.4-13.5-4.9-34.1-10.2-49.4-12.6-17-2.7-49.4-3.5-65.5-1.6zM184.5 163c43.5 6.2 75.6 34.7 83.1 73.9 2 10.2 1.9 28.7-.1 38.6-6.8 32.9-30 58.2-63 68.8-13.5 4.4-19.1 5.2-36.5 5.2-11.7 0-18.7-.5-24-1.7-37.5-8.3-64.4-32.2-74.1-65.8-3-10.7-3.8-33.5-1.4-45.1 7.9-39.1 39.7-67.7 82-73.8 8.4-1.2 25.7-1.2 34-.1zm198.6 41.6c28.5 5.4 49.6 22.5 58.7 47.6 2.5 6.8 2.7 8.4 2.6 23.3 0 14.7-.2 16.6-2.6 23.3-3.9 10.7-8.3 17.7-16.8 26.2-7.9 7.9-15 12.6-24.8 16.6-12.7 5.1-17.6 5.9-36.7 5.9-21 0-27.8-1.4-42.6-9.1-18-9.3-30.3-23.8-36.1-42.4-3.3-10.8-3.3-30.2 0-41 3.7-11.8 8.5-19.5 18.1-29 11.8-11.7 26.4-19 43.8-22 8.4-1.4 27.6-1.1 36.4.6z"/><path d="M160 212c-10.5 2.2-21.9 11-26.9 20.8-4.6 9-6.2 22.9-4.1 34.3 2.5 13.3 12.9 26.4 24.7 31 7.3 2.8 20.5 3 27.3.5 11.2-4.1 20.5-13.9 24.7-25.8 2.5-7.4 2.5-26.2 0-33.6-4.2-11.9-13.7-21.9-24.5-25.7-5.7-1.9-15.6-2.6-21.2-1.5zM356.6 249.5c-6.2 2.2-8.9 4.6-12.1 11-2.7 5.4-3 6.9-3 15.5s.3 10 3 15c3.9 7.1 9.3 10.9 16.7 11.7 9.5 1 17.4-3.3 22.1-12.1 3-5.6 3.2-24.2.3-29.6-3.1-5.9-7.7-9.9-13-11.5-6.1-1.8-8.9-1.8-14 0z"/></svg>